PathFileType	4	(X/Y/Z)	 s11c0401.trc
DataRate	CameraRate	NumFrames	NumMarkers	Units	OrigDataRate	OrigDataStartFrame	OrigNumFrames
200	200	6	48	mm	200	1751	2000
Frame#	Time	racr			lacr			c7			jug			rlel			rdr			llel			ldr			s2			lic			ric			lasi			rasi			rpsi			lpsi			rgt			lgt			rth1			rth2			rth3			rth4			rlfc			rmfc			rsh1			rsh2			rsh3			rsh4			rlmal			rcal			rtoe			rmt5			lth1			lth2			lth4			lth3			llfc			lmfc			llmal			lcal			lmt5			lsh1			lsh2			lsh3			lsh4			ltoe			SBIKE			LBIKE			RBIKE			
		X1	Y1	Z1	X2	Y2	Z2	X3	Y3	Z3	X4	Y4	Z4	X5	Y5	Z5	X6	Y6	Z6	X7	Y7	Z7	X8	Y8	Z8	X9	Y9	Z9	X10	Y10	Z10	X11	Y11	Z11	X12	Y12	Z12	X13	Y13	Z13	X14	Y14	Z14	X15	Y15	Z15	X16	Y16	Z16	X17	Y17	Z17	X18	Y18	Z18	X19	Y19	Z19	X20	Y20	Z20	X21	Y21	Z21	X22	Y22	Z22	X23	Y23	Z23	X24	Y24	Z24	X25	Y25	Z25	X26	Y26	Z26	X27	Y27	Z27	X28	Y28	Z28	X29	Y29	Z29	X30	Y30	Z30	X31	Y31	Z31	X32	Y32	Z32	X33	Y33	Z33	X34	Y34	Z34	X35	Y35	Z35	X36	Y36	Z36	X37	Y37	Z37	X38	Y38	Z38	X39	Y39	Z39	X40	Y40	Z40	X41	Y41	Z41	X42	Y42	Z42	X43	Y43	Z43	X44	Y44	Z44	X45	Y45	Z45	X46	Y46	Z46	X47	Y47	Z47	X48	Y48	Z48	
1751	8.7550	463.496501	1432.437469	-74.268730	465.292476	1471.530007	-397.913419	381.803230	1548.360966	-235.313839	429.929924	1377.568777	-246.089427	576.502360	1183.624675	1.227417	765.237208	949.039437	-60.488234	559.727950	1193.218906	-487.860075	771.156276	949.511853	-430.074829	-120.766909	1200.404291	-258.332924	101.807282	1223.364383	-457.497919	96.589803	1220.141833	-59.278311	139.809887	1149.936725	-425.854612	126.927147	1155.021723	-96.347280	-82.732203	1275.280957	-205.682004	-82.127886	1265.153148	-303.783865	50.550319	1083.783233	-33.613323	20.967563	1077.314754	-464.704857	171.773862	1005.760929	-22.798286	258.793972	987.016777	-28.351377	322.469894	927.183513	-36.719035	275.491567	1018.460678	-39.326802	414.666987	862.006459	-49.881308	425.435071	847.295062	-181.040362	313.326405	742.334927	-47.736218	268.432451	669.963677	-71.816912	193.238934	626.439171	-77.691254	288.849947	656.640280	-103.066610	89.019545	551.021913	-98.020227	29.850144	577.758683	-148.992054	226.016901	368.662779	-136.993237	153.424692	393.632431	-70.021394	132.117150	969.393837	-478.202326	206.902297	928.002902	-472.185311	233.264440	953.612739	-466.332856	252.019500	850.749709	-462.069206	348.799797	751.379253	-434.264247	361.604838	748.061848	-307.903971	272.912975	330.403756	-409.108619	215.144877	291.355987	-376.228842	417.622934	235.799324	-438.538959	321.453288	627.443610	-453.515792	334.964390	543.566076	-438.973659	305.147059	460.587764	-433.762150	366.207322	543.520469	-416.615425	511.846481	256.455476	-367.747295	-171.543651	948.540615	-265.835767	1.406546	82.467046	-461.067153	-15.269493	81.106913	-62.552972	
1752	8.7600	463.440263	1432.500157	-73.868548	465.745398	1471.822130	-397.440986	381.857541	1548.541450	-234.931765	430.137353	1377.865642	-245.682513	576.471426	1183.599129	1.541231	765.178601	949.118329	-60.540120	560.032662	1193.352433	-487.748339	771.379719	949.728176	-430.396560	-120.611436	1200.442125	-258.605531	102.025262	1223.088194	-457.511062	96.464314	1220.549641	-59.298436	140.232890	1149.886433	-425.996876	126.606846	1155.228531	-96.343841	-82.654580	1275.339612	-206.071946	-81.923694	1265.153418	-304.169272	50.863306	1085.152409	-33.385332	20.637064	1076.570211	-464.540402	172.893379	1008.599135	-22.645128	260.084932	990.731094	-28.404057	324.434215	931.634301	-36.520213	276.379877	1022.290826	-39.622277	417.362469	867.347828	-49.737891	427.908049	852.477963	-181.142497	316.265026	747.325972	-47.608374	271.513838	674.795340	-71.598993	196.238229	631.447849	-77.594647	292.199355	661.844958	-102.841494	92.019330	555.724677	-97.998598	32.769006	582.298065	-149.182323	229.288529	373.606461	-136.904597	156.600513	398.522229	-69.909730	130.452580	967.333521	-478.143326	204.667626	924.947543	-472.002074	231.359740	950.126869	-466.128972	248.717321	847.102136	-461.484446	344.350937	746.809610	-433.656303	357.380441	743.739446	-307.131305	269.486566	325.560075	-408.932529	211.973296	286.535995	-376.275514	414.338434	230.965558	-438.673129	317.083406	622.910874	-453.240586	330.762972	539.119710	-438.741202	301.113770	455.991888	-433.578131	362.017946	539.050876	-416.361774	508.530817	251.710608	-367.884995	-171.556395	948.295878	-266.470953	1.413191	82.476504	-461.069760	-15.270388	81.108025	-62.543010	
1753	8.7650	463.385380	1432.589006	-73.415043	466.231345	1472.091868	-396.998289	381.931742	1548.732189	-234.551762	430.311835	1378.131836	-245.320919	576.486264	1183.593174	1.877347	765.129739	949.397680	-60.788588	560.348089	1193.528746	-487.616287	771.566671	949.861616	-430.583841	-120.458856	1200.446805	-258.849675	102.211888	1222.692957	-457.450904	96.344600	1220.963454	-59.347700	140.678302	1149.816519	-426.122816	126.137536	1155.848675	-96.664296	-82.650969	1275.507211	-206.427718	-81.745986	1265.144408	-304.461536	51.153882	1086.504976	-33.137543	20.252133	1075.813063	-464.434722	173.931676	1011.413869	-22.539775	261.427662	994.470706	-28.523981	326.346746	936.088460	-36.380355	277.251107	1026.169245	-39.850855	420.039488	872.656847	-49.508405	430.434085	857.429113	-180.868393	319.177103	752.341529	-47.494177	274.912584	680.016984	-71.727710	199.316708	636.240703	-77.433421	295.238172	666.642306	-102.581710	95.143909	560.426304	-97.862498	35.867487	586.844209	-149.117479	232.673945	378.640305	-136.805460	160.103692	403.298939	-69.797544	128.762156	965.310525	-478.095661	202.329134	921.911445	-471.806728	229.391408	946.878537	-465.961759	245.323576	843.583534	-461.067100	339.871002	742.377238	-433.088827	352.733871	739.130602	-306.517399	265.859004	320.967542	-408.834032	208.583432	281.818213	-376.268622	410.876834	226.176449	-438.783511	312.712771	618.502153	-452.939157	326.494518	534.651535	-438.482072	296.984568	451.548666	-433.419690	357.777275	534.708185	-416.111343	505.199860	246.808242	-367.950021	-171.597792	948.071085	-267.080979	1.358171	82.542468	-460.993039	-15.287318	81.088771	-62.562904	
1754	8.7700	463.324759	1432.709920	-72.850121	466.719825	1472.416278	-396.605575	381.982408	1548.881338	-234.105920	430.519286	1378.382932	-244.918383	576.503635	1183.608742	2.197180	765.104112	949.463521	-60.871596	560.659291	1193.690200	-487.452114	771.723063	949.996256	-430.802977	-120.368238	1200.477776	-259.004186	102.537873	1222.337176	-457.627262	96.206875	1221.360691	-59.390907	141.021660	1149.735144	-426.211041	125.614763	1156.645392	-97.342301	-82.628803	1275.672575	-206.719523	-81.611005	1265.119544	-304.703704	51.475644	1087.925870	-32.799717	19.843142	1075.350486	-464.493202	174.992801	1014.245782	-22.389621	262.609169	998.232310	-28.509863	328.215653	940.591006	-36.219250	278.042782	1030.019147	-40.124544	422.673067	878.020785	-49.330932	432.816197	862.573290	-180.868028	322.118030	757.328346	-47.374377	277.922802	684.946317	-71.537166	202.446854	641.056954	-77.356774	298.235343	671.557163	-102.521613	98.367711	565.108404	-97.753070	38.911641	591.382717	-148.964420	236.293416	383.566168	-136.662944	163.579594	408.227487	-69.666731	126.975522	963.385831	-478.049345	200.134887	918.985203	-471.693029	227.375203	943.552152	-465.826122	241.836812	839.857302	-460.147501	335.356074	738.065359	-432.561960	348.083489	734.592680	-305.908839	262.198170	316.333017	-408.568087	205.107990	277.371586	-376.373702	407.304149	221.426901	-438.852587	308.233577	614.186283	-452.730490	322.160830	530.383788	-438.288977	292.717230	447.251631	-433.266826	353.449276	530.393868	-415.971280	501.591227	242.060738	-368.096249	-171.428864	947.967447	-267.325506	1.411337	82.460823	-461.046468	-15.271350	81.079289	-62.547524	
1755	8.7750	463.277855	1432.846253	-72.260407	467.192023	1472.671555	-396.196565	382.042734	1549.017870	-233.722481	430.789507	1378.595853	-244.507813	576.516339	1183.623378	2.493235	765.051796	949.490415	-60.900661	560.937859	1193.872748	-487.330637	771.813789	950.040158	-431.035014	-120.265401	1200.506342	-259.157129	102.951623	1222.070910	-457.897027	96.083409	1221.753779	-59.417195	141.355585	1149.551765	-426.309944	125.229228	1157.244318	-97.639553	-82.659234	1275.845031	-206.956091	-81.469663	1265.059018	-304.961056	51.751069	1089.190454	-32.574014	19.378308	1074.756678	-464.363697	175.958340	1016.981807	-22.365307	263.739570	1001.952979	-28.420073	330.002166	945.124256	-36.131481	278.766050	1033.879089	-40.443142	425.177985	883.466379	-49.140886	435.166198	867.773665	-180.902908	324.986426	762.322202	-47.277109	281.009947	689.850077	-71.415301	205.557003	645.856654	-77.225711	301.225069	676.497418	-102.351535	101.582231	569.670716	-97.641921	42.092777	595.710187	-148.835267	240.095429	388.727226	-136.590177	167.394894	413.043363	-69.552049	125.188790	961.606077	-478.029816	197.547560	916.235928	-471.434029	225.248046	940.458545	-465.638620	238.322098	836.563742	-459.711789	330.868424	733.857572	-431.996054	343.365498	730.171932	-305.308711	258.532413	311.756952	-407.970627	201.357695	273.074277	-376.603294	403.569125	216.774779	-438.966960	303.846641	610.108681	-452.586608	317.792945	526.287125	-438.132130	288.350424	443.116131	-433.133741	349.097834	526.321183	-415.828382	497.914367	237.097185	-368.146792	-171.617392	947.663883	-268.130160	1.395577	82.470428	-461.052521	-15.274809	81.065128	-62.560648	
1756	8.7800	463.211625	1432.980140	-71.694588	467.642522	1472.936950	-395.738926	382.080482	1549.159656	-233.356871	431.034806	1378.849430	-244.111874	576.515584	1183.659358	2.763512	764.966635	949.536057	-60.878232	561.246848	1194.093029	-487.126637	771.840819	950.070119	-431.224591	-120.166856	1200.535310	-259.291239	103.184865	1221.789521	-457.944590	95.941317	1222.197133	-59.405414	141.688221	1149.323469	-426.364059	124.837769	1158.060179	-97.937484	-82.645248	1276.128225	-207.262224	-81.352546	1265.040569	-305.193360	51.973049	1090.520797	-32.302885	18.963269	1074.182782	-464.224749	176.893242	1019.777854	-22.322557	264.805906	1005.739387	-28.319346	331.719179	949.612530	-35.993013	279.462745	1037.828833	-40.676230	427.729126	888.973392	-48.950007	437.498260	872.985625	-180.623646	327.854313	767.357535	-47.161833	284.062298	694.779118	-71.330315	208.680225	650.521031	-77.099492	304.455213	681.446563	-102.155634	104.948332	574.138984	-97.504209	45.295820	599.912747	-148.759920	244.201075	393.719113	-136.447922	171.471724	417.760774	-69.423031	123.341200	959.881858	-478.004030	195.111145	913.542383	-471.268578	223.090854	937.376533	-465.498197	234.793787	833.323065	-459.377327	326.384694	729.806813	-431.474703	338.633235	725.694196	-304.688225	254.701458	307.485077	-407.791180	197.586225	269.007996	-376.545329	399.628706	212.149441	-439.123603	299.623329	606.120582	-452.462923	313.468447	522.356189	-437.985275	284.024592	439.194693	-433.012266	344.717793	522.375903	-415.597852	494.047106	232.339054	-368.322738	-171.509555	947.502825	-268.562379	1.404109	82.459926	-461.047269	-15.285856	81.084715	-62.555257	
